<svg id="Layer_1" data-name="Layer 1" xmlns="http://www.w3.org/2000/svg" viewBox="0 0 691.9 691.9"><defs><style>.cls-1{fill:#e2e2e2;}.cls-2{fill:#636363;}</style></defs><title>favicon_logopessoal</title><circle class="cls-1" cx="346" cy="346" r="346"/><path class="cls-2" d="M94.8,407.9l127.5-52.3h0a10.7,10.7,0,0,0,6.3-12.8l-3.8-14.4c0-2.1-2.9-3.5-4.8-2.7l-2.2,1c-2.4.9-171.8,70.1-171.8,72.7s6.2,25.4,20.2,30.7L220,493.2a3,3,0,0,0,3.9-1.6,5,5,0,0,0,.2-1.2V466.7a4,4,0,0,0-2.3-3.6l-127-52.5a1.4,1.4,0,0,1-.8-1.8A2.4,2.4,0,0,1,94.8,407.9Z" transform="translate(-2.2 -1.5)"/><path class="cls-2" d="M478.5,326.7l-2.2-1c-1.9-.8-4.8.6-4.8,2.7l-3.8,14.4a10.6,10.6,0,0,0,6.3,12.8h0l127.5,52.3a1.5,1.5,0,0,1,.8,1.8,2.4,2.4,0,0,1-.8.9l-127,52.5a4,4,0,0,0-2.3,3.6v23.7a2.8,2.8,0,0,0,2.9,3,2.5,2.5,0,0,0,1.2-.2l153.8-63.1c14-5.3,20.2-28.5,20.2-30.7S480.8,327.6,478.5,326.7Z" transform="translate(-2.2 -1.5)"/><path class="cls-2" d="M454.1,345.2l-60.2-7,5.4-6L438.1,320a1.9,1.9,0,0,0,1.2-2.4h0l-.4-1.4a1.9,1.9,0,0,0-2.4-1.2h0l-30.2,9.5c10.6-11.7,21.9-23.8,33.7-36.6a6.5,6.5,0,0,0,1.8-3.7,131.8,131.8,0,0,0,1.4-19.8c0-41.4-18.6-74.5-33.8-94.8a7.2,7.2,0,0,0-10.1-1.4,6.6,6.6,0,0,0-2.4,3.3l-25.4,72.2a10.9,10.9,0,0,1-13.2,6.7h-.1a80.5,80.5,0,0,0-40.2-.9,11.9,11.9,0,0,1-13.5-6.8c-7.5-16.8-21.2-39.5-46.2-54.5l-4.2-2.4a7.7,7.7,0,0,0-10.2,3.1,9,9,0,0,0-.8,2.3c-4.1,22.4-3.9,23.1-5,43.4-.2,5.9,2.8,28.4,4,34.2,1.6,7.5,1.5,25.8.6,49.6l-15.1-2.2a1.6,1.6,0,0,0-1.6,1.5v1.5a1.7,1.7,0,0,0,1.2,2l15.4,2.3c-.2,3.4-.2,6.7-.4,10.1a.9.9,0,0,1,1,.6c.5,1.5.8,2.6,1.1,3.3a17.5,17.5,0,0,0,1.3,2.8l-7.4,2.9a1.8,1.8,0,0,0-.8,2.1l.2,1.2c.3.9,1,1.4,1.7,1.1L248,344l1.4,1.6c2.8,2.7,64.6,30.6,88.4,40.6a.7.7,0,0,1,.5,1,.8.8,0,0,1-1,.6h0l-2.9-.6c-5.5-1.2-21.8,0-31.4,7.8-24.4,19.9-65.6,101.9-73.5,115a5.6,5.6,0,0,0-.7,4,28.7,28.7,0,0,0,7.6,14.3c12.1-22.4,54.8-77,152.7-184.9l64.3,7.6a2.2,2.2,0,0,0,2.4-1.9h0l.2-1.7A2.1,2.1,0,0,0,454.1,345.2ZM306.5,313.7c0,1.8-1.7,2.7-2.7,1.6l-3.6-3.7a26.9,26.9,0,0,0-6.2-3.9,18.4,18.4,0,0,0-8-1.8c-6,0-11.9,3.1-17.9,9.3-1,1.1-2.7.3-2.7-1.5a2,2,0,0,1,.4-1.3,40.4,40.4,0,0,1,9-9.9,17.7,17.7,0,0,1,11.2-4.3,16.7,16.7,0,0,1,9.7,3.1,45.2,45.2,0,0,1,10.4,11A3.3,3.3,0,0,1,306.5,313.7Zm27.9,21.2c-.9,2.7-3.4,3-8.5,7.7l-2.6,2.6a.4.4,0,0,1-.1-.3l-2.3-2.3c-5.1-4.7-7.7-5-8.5-7.7s.2-5.1,2-6,5.8,1.5,6.5,2a9.6,9.6,0,0,1,1.8,2.2.7.7,0,0,0,.9.1h.1a22.8,22.8,0,0,1,2.2-2.2c.7-.5,4-3.3,6.5-2s2.6,3.8,2,6Zm33.1-29c-5.9,0-11.9,3.1-17.9,9.3-1,1.1-2.7.3-2.7-1.5a2,2,0,0,1,.4-1.3,40.4,40.4,0,0,1,9-9.9,17.7,17.7,0,0,1,11.2-4.3,16.7,16.7,0,0,1,9.7,3.1,45.2,45.2,0,0,1,10.4,11,2.3,2.3,0,0,1,.4,1.4h0c0,1.8-1.6,2.7-2.7,1.6s-2.8-2.9-3.6-3.7a26.9,26.9,0,0,0-6.2-3.9,18.4,18.4,0,0,0-8-1.8Z" transform="translate(-2.2 -1.5)"/></svg>