<svg id="Layer_1" data-name="Layer 1" xmlns="http://www.w3.org/2000/svg" viewBox="0 0 695 695"><defs><style>.cls-1{fill:#eb8f5b;}.cls-2{fill:none;}</style></defs><title>minha_logoDev</title><path class="cls-1" d="M57,416.6l145.4-59.7h0a12.2,12.2,0,0,0,7.2-14.6l-4.3-16.4c0-2.4-3.3-4-5.5-3.1l-2.5,1.1c-2.7,1.1-196,80-196,83s7,29,23,35l175.5,72a3.4,3.4,0,0,0,4.7-3.2V483.6a4.5,4.5,0,0,0-2.7-4L57,419.6A1.6,1.6,0,0,1,57,416.6Z" transform="translate(1.5 -0.1)"/><path class="cls-1" d="M494.7,323.9l-2.5-1.1c-2.2-.9-5.5.7-5.5,3.1l-4.3,16.4a12.2,12.2,0,0,0,7.2,14.6h0L635,416.6a1.6,1.6,0,0,1,0,3l-144.8,60a4.5,4.5,0,0,0-2.7,4v27.1a3.4,3.4,0,0,0,4.7,3.2l175.5-72c16-6,23-32.5,23-35S497.4,325,494.7,323.9Z" transform="translate(1.5 -0.1)"/><path class="cls-1" d="M466.9,345l-68.7-8,6.2-6.8,44.2-13.9a2.2,2.2,0,0,0,1.4-2.8l-.4-1.5a2.2,2.2,0,0,0-2.8-1.4l-34.4,10.8c12.1-13.3,24.9-27.1,38.4-41.7a8.7,8.7,0,0,0,2.1-4.3,161,161,0,0,0,1.6-22.5c0-47.3-21.3-85-38.6-108.2a8.2,8.2,0,0,0-14.3,2.2l-29,82.3a12.3,12.3,0,0,1-15,7.7h-.1a92.2,92.2,0,0,0-45.9-1,13.7,13.7,0,0,1-15.4-7.8c-8.5-19.2-24.2-45.1-52.7-62.2l-4.8-2.7a8.6,8.6,0,0,0-12.5,6.1c-4.7,25.6-4.5,26.4-5.7,49.6-.3,6.7,3.2,32.4,4.5,39,1.8,8.5,1.7,29.4.7,56.6l-17.2-2.6a1.8,1.8,0,0,0-1.8,1.8l-.2,1.7a2.1,2.1,0,0,0,1.4,2.3l17.6,2.6c-.2,3.8-.3,7.6-.5,11.5a1,1,0,0,1,1.2.7c.5,1.7.9,2.9,1.2,3.7a18.7,18.7,0,0,0,1.5,3.2l-8.4,3.4a2,2,0,0,0-1,2.4l.3,1.3c.3,1,1.1,1.6,1.9,1.3l10.1-4.1,1.6,1.8c3.1,3.1,73.6,34.9,100.8,46.3a.9.9,0,0,1-.6,1.8l-3.3-.7c-6.3-1.3-24.8,0-35.8,9-27.8,22.7-74.9,116.2-83.9,131.2a6.5,6.5,0,0,0-.8,4.5c1.4,8.2,7.3,15.2,8.7,16.3C232.3,528.4,281,466.1,392.7,343l73.4,8.6a2.4,2.4,0,0,0,2.7-2.1l.2-1.9A2.4,2.4,0,0,0,466.9,345ZM298.5,309.1c0,2-1.9,3.1-3.1,1.8s-3.2-3.3-4.1-4.2a30.2,30.2,0,0,0-7.1-4.5,21.4,21.4,0,0,0-9.1-2c-6.8,0-13.6,3.5-20.4,10.6-1.2,1.3-3.1.3-3.1-1.7a3.3,3.3,0,0,1,.4-1.5,48.7,48.7,0,0,1,10.3-11.3,20.2,20.2,0,0,1,12.8-4.9,19.5,19.5,0,0,1,11.1,3.6A49.4,49.4,0,0,1,298,307.5a3,3,0,0,1,.5,1.6Zm31.8,24.2c-1,3.1-3.9,3.4-9.7,8.8-1.2,1.1-2.4,2.2-3,2.9a.4.4,0,0,1-.1-.3c-.6-.6-1.5-1.6-2.6-2.6-5.8-5.4-8.8-5.7-9.7-8.8s.2-5.8,2.3-6.9,6.6,1.7,7.4,2.3a12.1,12.1,0,0,1,2.1,2.5.7.7,0,0,0,1.1,0,29.5,29.5,0,0,1,2.5-2.5c.8-.6,4.6-3.7,7.4-2.3S331,330.8,330.3,333.3Zm37.8-33.1c-6.8,0-13.6,3.5-20.4,10.6-1.2,1.3-3.1.3-3.1-1.7a3.3,3.3,0,0,1,.4-1.5,48.7,48.7,0,0,1,10.3-11.3,20.2,20.2,0,0,1,12.8-4.9,19.5,19.5,0,0,1,11.1,3.6A49.4,49.4,0,0,1,391,307.5a3,3,0,0,1,.5,1.6h0c0,2-1.9,3.1-3.1,1.8s-3.2-3.3-4.1-4.2a30.2,30.2,0,0,0-7.1-4.5A21.4,21.4,0,0,0,368.1,300.2Z" transform="translate(1.5 -0.1)"/><rect class="cls-2" width="695" height="695"/></svg>