<svg id="Layer_1" data-name="Layer 1" xmlns="http://www.w3.org/2000/svg" viewBox="0 0 692 692"><defs><style>.cls-1{fill:#fff;}</style></defs><title>favicon_pessoal</title><path class="cls-1" d="M330.2,327.5c-2.5-1.3-5.8,1.5-6.5,2a11.5,11.5,0,0,0-2.2,2.2h-.2a.8.8,0,0,1-.8-.1,7.9,7.9,0,0,0-1.8-2.2c-.7-.5-4.7-2.9-6.5-2s-2.8,3.3-2,6,3.3,3,8.5,7.7l2.3,2.3c-.1.1,0,.2,0,.3l2.7-2.6c5-4.7,7.5-5,8.5-7.7h0C332.7,331.3,332.7,328.8,330.2,327.5Z" transform="translate(0 0)"/><path class="cls-1" d="M293.5,299.8a15.9,15.9,0,0,0-9.8-3.1,17.4,17.4,0,0,0-11.2,4.3,40.6,40.6,0,0,0-9,9.9,2.5,2.5,0,0,0-.4,1.3c0,1.8,1.7,2.6,2.7,1.5,6-6.2,11.9-9.3,17.9-9.3a16.8,16.8,0,0,1,8,1.8A28.5,28.5,0,0,1,298,310l3.5,3.8c1,1.1,2.7.2,2.7-1.6a2.3,2.3,0,0,0-.4-1.4A43.2,43.2,0,0,0,293.5,299.8Z" transform="translate(0 0)"/><path class="cls-1" d="M375,299.8a15.8,15.8,0,0,0-9.7-3.1A17.5,17.5,0,0,0,354,301a40.6,40.6,0,0,0-9,9.9,1.8,1.8,0,0,0-.3,1.3c0,1.8,1.7,2.6,2.7,1.5,6-6.2,12-9.3,17.9-9.3a17.3,17.3,0,0,1,8,1.8,26.9,26.9,0,0,1,6.2,3.9l3.5,3.7c1.2,1.1,2.8.2,2.8-1.6a3.3,3.3,0,0,0-.4-1.4A45.4,45.4,0,0,0,375,299.8Z" transform="translate(0 0)"/><path class="cls-1" d="M346,0C154.9,0,0,154.9,0,346S154.9,692,346,692,692,537,692,346,537,0,346,0ZM92.5,409l127,52.5a4.1,4.1,0,0,1,2.3,3.7v23.6a4.1,4.1,0,0,1-.1,1.2,3.1,3.1,0,0,1-4,1.7L64,428.6c-14-5.3-20.3-28.1-20.3-30.7S213.2,326,215.5,325.2l2.2-1c2-.8,4.8.6,4.8,2.7l3.9,14.4A10.7,10.7,0,0,1,220,354L92.5,406.3a3.9,3.9,0,0,0-.8,1A1.3,1.3,0,0,0,92.5,409Zm361.1-61.5a2.4,2.4,0,0,1-2.4,2l-64.3-7.7c-97.9,108-140.7,162.5-152.7,185a29.9,29.9,0,0,1-7.7-14.3,6,6,0,0,1,.7-4c8-13.2,49.2-95.2,73.5-115,9.7-7.8,26-9,31.5-7.8l2.8.6h.1a.7.7,0,0,0,.9-.6.3.3,0,0,0,.1-.2.6.6,0,0,0-.6-.8c-23.8-10-85.5-37.9-88.3-40.7l-1.5-1.5L237,346c-.7.3-1.3-.2-1.7-1v-1.2a1.8,1.8,0,0,1,.8-2.2l7.3-2.8c-.5-.9-.9-1.9-1.3-2.8s-.5-1.8-1-3.3a1,1,0,0,0-1-.7c.1-3.3.1-6.7.3-10L225,319.7a1.9,1.9,0,0,1-1.3-2v-1.5a1.6,1.6,0,0,1,1.6-1.5l15.2,2.2c.8-23.9,1-42.1-.7-49.6-1.1-5.8-4.1-28.3-4-34.3,1.2-20.2.9-21,5-43.3a9.2,9.2,0,0,1,.9-2.3,7.5,7.5,0,0,1,10.1-3.1l4.2,2.4c25,15,38.7,37.6,46.2,54.5a12,12,0,0,0,13.5,6.8,80.9,80.9,0,0,1,40.3.8h.1a10.9,10.9,0,0,0,13.2-6.6L394.7,170a5.7,5.7,0,0,1,2.4-3.3h0a7.3,7.3,0,0,1,10.1,1.4c15.2,20.3,33.8,53.5,33.8,94.8a144.2,144.2,0,0,1-1.4,19.8,7.2,7.2,0,0,1-1.8,3.7c-11.8,12.9-23.1,25-33.7,36.7l30.2-9.5a1.9,1.9,0,0,1,2.4,1.2l.4,1.3a2.2,2.2,0,0,1-1.2,2.5L397,330.7l-5.3,6,60.2,7a2.1,2.1,0,0,1,1.9,2.1Zm174.3,81L474.1,491.6a1.7,1.7,0,0,1-1.2.2h-.4a2.7,2.7,0,0,1-2.5-3V465.1a4.1,4.1,0,0,1,2.3-3.6l127-52.5a1.6,1.6,0,0,0,.7-.9,1.5,1.5,0,0,0-.7-1.8L471.8,354a10.4,10.4,0,0,1-6.3-12.7l3.8-14.4c0-2.1,2.9-3.5,4.7-2.7l2.3,1c2.2.8,171.8,70.4,171.8,72.6S641.9,423.3,627.9,428.5Z" transform="translate(0 0)"/></svg>