<svg id="Layer_1" data-name="Layer 1" xmlns="http://www.w3.org/2000/svg" viewBox="0 0 689.5 412.5"><defs><style>.cls-1{opacity:0.1;}.cls-2{fill:#adadad;}</style></defs><title>minha_logoCinza</title><g class="cls-1"><path class="cls-2" d="M94.9,373.5l145.4-59.7h.1a12.4,12.4,0,0,0,7.2-14.6l-4.4-16.4c0-2.4-3.2-4-5.5-3.1l-2.5,1.1c-2.7,1.1-196,80-196,83s7,29,23,35l175.5,72a3.5,3.5,0,0,0,4.5-1.9,3.1,3.1,0,0,0,.3-1.3V440.5a4.5,4.5,0,0,0-2.7-4l-144.9-60c-1,0-1.8-.5-1.8-1.5A1.4,1.4,0,0,1,94.9,373.5Z" transform="translate(-39.2 -98.3)"/><path class="cls-2" d="M532.7,280.8l-2.5-1.1c-2.3-.9-5.5.7-5.5,3.1l-4.4,16.4a12.4,12.4,0,0,0,7.2,14.6h.1L673,373.5a1.5,1.5,0,0,1,.9,2.1,1.6,1.6,0,0,1-.9.9l-144.9,60a4.4,4.4,0,0,0-2.6,4v27.1a3.5,3.5,0,0,0,3.3,3.5,3.2,3.2,0,0,0,1.4-.3l175.5-72c16-6,23-32.5,23-35S535.4,281.9,532.7,280.8Z" transform="translate(-39.2 -98.3)"/><path class="cls-2" d="M504.9,301.9l-68.7-8,6.1-6.8,44.2-13.9a2.3,2.3,0,0,0,1.5-2.8l-.5-1.5a2.2,2.2,0,0,0-2.8-1.4h0l-34.3,10.8c12.1-13.3,24.8-27.1,38.3-41.7a7.9,7.9,0,0,0,2.1-4.3,154.9,154.9,0,0,0,1.7-22.5c0-47.3-21.4-85-38.7-108.2a8.2,8.2,0,0,0-11.5-1.6,7.6,7.6,0,0,0-2.8,3.8l-28.9,82.3a12.4,12.4,0,0,1-15,7.7h-.1a93.1,93.1,0,0,0-46-1,13.8,13.8,0,0,1-15.4-7.8c-8.4-19.2-24.1-45.1-52.6-62.2l-4.8-2.7a8.6,8.6,0,0,0-11.6,3.6,10.6,10.6,0,0,0-.9,2.5c-4.7,25.6-4.5,26.4-5.7,49.6-.4,6.7,3.1,32.4,4.5,39,1.8,8.5,1.7,29.4.7,56.6l-17.3-2.6a1.8,1.8,0,0,0-1.8,1.8v1.7a2,2,0,0,0,1.4,2.3l17.5,2.6c-.1,3.8-.3,7.6-.5,11.5a1,1,0,0,1,1.2.5v.2c.5,1.7.9,2.9,1.2,3.7a18.7,18.7,0,0,0,1.5,3.2l-8.4,3.4a2.1,2.1,0,0,0-1,2.4l.4,1.3c.2,1,1.1,1.6,1.8,1.3l10.2-4.1,1.6,1.8c3.1,3.1,73.6,34.9,100.8,46.3a1.1,1.1,0,0,1,.2,1.4.9.9,0,0,1-.8.4l-3.3-.7c-6.3-1.3-24.8,0-35.8,9C304.7,381.5,257.7,475,248.7,490a7.1,7.1,0,0,0-.9,4.5c1.4,8.2,7.3,15.2,8.8,16.3C270.3,485.3,319,423,430.8,299.9l73.4,8.6a2.3,2.3,0,0,0,2.5-2.1h0l.2-1.9a2.3,2.3,0,0,0-1.8-2.6ZM336.5,266c0,2-2,3.1-3.2,1.8a54.4,54.4,0,0,0-4.1-4.2,32.2,32.2,0,0,0-7-4.5,22.4,22.4,0,0,0-9.2-2c-6.8,0-13.6,3.5-20.3,10.6-1.3,1.3-3.1.3-3.1-1.7a2.6,2.6,0,0,1,.4-1.5,48.2,48.2,0,0,1,10.3-11.3c4.1-3.3,8.3-4.9,12.7-4.9a19.6,19.6,0,0,1,11.2,3.6A51.9,51.9,0,0,1,336,264.4,3,3,0,0,1,336.5,266Zm31.7,24.2c-.9,3.1-3.9,3.4-9.7,8.8-1.1,1.1-2.4,2.2-3,2.9v-.3c-.7-.6-1.5-1.6-2.7-2.6-5.7-5.4-8.7-5.7-9.6-8.8s.2-5.8,2.3-6.9,6.6,1.7,7.3,2.3a26.2,26.2,0,0,1,2.2,2.5.7.7,0,0,0,1,.1h.1a18.8,18.8,0,0,1,2.4-2.5c.8-.6,4.6-3.7,7.4-2.3s3,4.4,2.3,6.9ZM406,257.1c-6.8,0-13.6,3.5-20.3,10.6-1.3,1.3-3.1.3-3.1-1.7a2.6,2.6,0,0,1,.4-1.5,48.2,48.2,0,0,1,10.3-11.3c4.1-3.3,8.3-4.9,12.7-4.9a19.6,19.6,0,0,1,11.2,3.6A51.9,51.9,0,0,1,429,264.4a3,3,0,0,1,.5,1.6h0c0,2-2,3.1-3.2,1.8a54.4,54.4,0,0,0-4.1-4.2,32.2,32.2,0,0,0-7-4.5A22.4,22.4,0,0,0,406,257.1Z" transform="translate(-39.2 -98.3)"/></g></svg>