<svg id="Layer_1" data-name="Layer 1" xmlns="http://www.w3.org/2000/svg" viewBox="0 0 474.1 474.1"><defs><style>.cls-1{fill:#fff;}</style></defs><title>favicon_pessoal</title><path class="cls-1" d="M335.1,324.3c-1.7-.9-3.9,1-4.4,1.4a5.4,5.4,0,0,0-1.5,1.5h-.1c-.2.1-.5.1-.6-.1a6.4,6.4,0,0,0-1.3-1.5c-.4-.4-3.2-2-4.4-1.4a3.5,3.5,0,0,0-1.4,4.1c.6,1.9,2.4,2.1,5.8,5.3l1.6,1.6c0,.1,0,.1.1.2l1.8-1.8c3.5-3.2,5.2-3.4,5.8-5.3h0C336.9,326.9,336.8,325.2,335.1,324.3Z" transform="translate(-108.9 -99.9)"/><path class="cls-1" d="M310,305.3a11.6,11.6,0,0,0-6.7-2.1,11.8,11.8,0,0,0-7.6,2.9,26.8,26.8,0,0,0-6.2,6.8,1.6,1.6,0,0,0-.3.9c0,1.2,1.2,1.8,1.9,1,4.1-4.2,8.1-6.3,12.2-6.3a13,13,0,0,1,5.5,1.2,19.4,19.4,0,0,1,4.3,2.7l2.4,2.5c.7.8,1.9.1,1.9-1.1a1.9,1.9,0,0,0-.3-1A31.5,31.5,0,0,0,310,305.3Z" transform="translate(-108.9 -99.9)"/><path class="cls-1" d="M365.8,305.3a11,11,0,0,0-6.6-2.1,12,12,0,0,0-7.7,2.9,28.7,28.7,0,0,0-6.2,6.8,1,1,0,0,0-.2.9c0,1.2,1.1,1.8,1.8,1q6.2-6.3,12.3-6.3a13.3,13.3,0,0,1,5.5,1.2,18.8,18.8,0,0,1,4.2,2.7l2.5,2.5c.7.8,1.8.1,1.8-1.1a1.9,1.9,0,0,0-.3-1A31.5,31.5,0,0,0,365.8,305.3Z" transform="translate(-108.9 -99.9)"/><path class="cls-1" d="M346,99.9C215,99.9,108.9,206,108.9,337S215,574,346,574,583,467.9,583,337,476.9,99.9,346,99.9ZM172.3,380.2l87.1,36a2.7,2.7,0,0,1,1.5,2.4v16.3a2.5,2.5,0,0,1-.1.8,2.1,2.1,0,0,1-2.7,1.1L152.7,393.6c-9.5-3.7-13.8-19.3-13.8-21.1S255,323.3,256.6,322.7l1.5-.7c1.3-.5,3.3.4,3.3,1.9l2.6,9.8a7.3,7.3,0,0,1-4.3,8.8l-87.4,35.8a1.8,1.8,0,0,0-.5.7A1,1,0,0,0,172.3,380.2Zm247.4-42.1a1.6,1.6,0,0,1-1.7,1.3l-44-5.2c-67.1,73.9-96.4,111.3-104.6,126.6a19.7,19.7,0,0,1-5.3-9.8,4.2,4.2,0,0,1,.5-2.7c5.4-9,33.7-65.2,50.4-78.8,6.6-5.3,17.7-6.2,21.5-5.3l2,.4h0a.7.7,0,0,0,.7-.4V364c.1-.2-.1-.5-.4-.5-16.3-6.9-58.6-26-60.5-27.8l-1-1.1-6,2.4c-.4.2-.9-.1-1.1-.7l-.2-.8a1.4,1.4,0,0,1,.6-1.5l5.1-2a6.6,6.6,0,0,1-.9-1.9l-.8-2.2a.8.8,0,0,0-.7-.5c.2-2.3.2-4.5.3-6.9l-10.5-1.6a1.1,1.1,0,0,1-.9-1.3v-1.1a1.2,1.2,0,0,1,1.1-1l10.4,1.5c.6-16.3.7-28.8-.4-34s-2.9-19.3-2.8-23.4c.8-13.9.6-14.4,3.4-29.7a7.6,7.6,0,0,1,.6-1.6,5.2,5.2,0,0,1,7-2.1l2.9,1.6c17.1,10.3,26.5,25.9,31.6,37.4a8.2,8.2,0,0,0,9.3,4.6,55.7,55.7,0,0,1,27.5.6h.1a7.4,7.4,0,0,0,9-4.6l17.4-49.4a4.8,4.8,0,0,1,1.7-2.3h0a5,5,0,0,1,6.9,1C398.3,229,411,251.7,411,280a88,88,0,0,1-.9,13.6,4.1,4.1,0,0,1-1.3,2.5c-8,8.8-15.8,17.1-23,25.1l20.6-6.5a1.3,1.3,0,0,1,1.7.8l.3,1a1.3,1.3,0,0,1-.9,1.6L381,326.5l-3.7,4.1,41.2,4.8a1.4,1.4,0,0,1,1.3,1.5Zm119.4,55.5L433.7,436.8h-1a1.9,1.9,0,0,1-1.8-2V418.6a2.6,2.6,0,0,1,1.6-2.4l87-36,.5-.6a1,1,0,0,0-.5-1.3l-87.4-35.8a7.4,7.4,0,0,1-4.3-8.8l2.6-9.8c0-1.5,2-2.4,3.3-1.9l1.5.7c1.6.6,117.7,48.3,117.7,49.8S548.7,389.9,539.1,393.6Z" transform="translate(-108.9 -99.9)"/></svg>